<svg width="29" height="26" viewBox="0 0 29 26" fill="none" xmlns="http://www.w3.org/2000/svg">
<path d="M2.69609 15.2547L12.9311 23.8215C13.3559 24.177 13.9166 24.375 14.5 24.375C15.0834 24.375 15.6441 24.177 16.0689 23.8215L26.3039 15.2547C28.0258 13.8176 29 11.8016 29 9.69417V9.39964C29 5.85003 26.1396 2.82347 22.2371 2.23948C19.6543 1.85354 17.0262 2.61018 15.1797 4.26565L14.5 4.87503L13.8203 4.26565C11.9738 2.61018 9.3457 1.85354 6.76289 2.23948C2.86035 2.82347 0 5.85003 0 9.39964V9.69417C0 11.8016 0.974219 13.8176 2.69609 15.2547Z" fill="#F5F5F5"/>
</svg>
