<svg width="29" height="26" viewBox="0 0 29 26" fill="none" xmlns="http://www.w3.org/2000/svg">
<g clip-path="url(#clip0_266_388)">
<path d="M28.9898 12.9746C28.9898 13.8887 28.2346 14.6047 27.3787 14.6047H25.7676L25.8028 22.7398C25.8028 22.877 25.7927 23.0141 25.7776 23.1512V23.9738C25.7776 25.0961 24.8764 26.0051 23.7637 26.0051H22.9582C22.9028 26.0051 22.8474 26.0051 22.792 26C22.7215 26.0051 22.6511 26.0051 22.5806 26.0051L20.9443 26H19.736C18.6233 26 17.7221 25.091 17.7221 23.9687V22.75V19.5C17.7221 18.6012 17.0021 17.875 16.111 17.875H12.8887C11.9976 17.875 11.2776 18.6012 11.2776 19.5V22.75V23.9687C11.2776 25.091 10.3764 26 9.26374 26H8.0554H6.44933C6.37381 26 6.29829 25.9949 6.22276 25.9898C6.16235 25.9949 6.10193 26 6.04151 26H5.23596C4.12329 26 3.22207 25.091 3.22207 23.9687V18.2812C3.22207 18.2355 3.22207 18.1848 3.22711 18.1391V14.5996H1.61599C0.709744 14.5996 0.00488281 13.8887 0.00488281 12.9695C0.00488281 12.5125 0.155924 12.1062 0.508355 11.7508L13.4123 0.40625C13.7648 0.0507812 14.1676 0 14.52 0C14.8724 0 15.2752 0.101562 15.5773 0.355469L28.436 11.7559C28.8387 12.1113 29.0401 12.5176 28.9898 12.9746Z" fill="#9A5CD0"/>
</g>
<defs>
<clipPath id="clip0_266_388">
<rect width="29" height="26" fill="white"/>
</clipPath>
</defs>
</svg>
