<svg width="29" height="26" viewBox="0 0 29 26" fill="none" xmlns="http://www.w3.org/2000/svg">
<g clip-path="url(#clip0_266_392)">
<path d="M23.5625 10.5625C23.5625 12.8934 22.7186 15.0465 21.2969 16.7934L28.4676 23.2273C29.1756 23.8621 29.1756 24.893 28.4676 25.5277C27.7596 26.1625 26.6098 26.1625 25.9018 25.5277L18.7311 19.0938C16.7826 20.3734 14.3811 21.125 11.7812 21.125C5.27324 21.125 0 16.3973 0 10.5625C0 4.72773 5.27324 0 11.7812 0C18.2893 0 23.5625 4.72773 23.5625 10.5625ZM11.7812 17.875C12.8523 17.875 13.9129 17.6859 14.9025 17.3184C15.8921 16.9509 16.7912 16.4122 17.5486 15.7332C18.306 15.0542 18.9068 14.2481 19.3166 13.3609C19.7265 12.4737 19.9375 11.5228 19.9375 10.5625C19.9375 9.60221 19.7265 8.65132 19.3166 7.76413C18.9068 6.87693 18.306 6.07081 17.5486 5.39178C16.7912 4.71275 15.8921 4.17412 14.9025 3.80663C13.9129 3.43914 12.8523 3.25 11.7812 3.25C10.7102 3.25 9.64955 3.43914 8.65999 3.80663C7.67043 4.17412 6.77129 4.71275 6.01391 5.39178C5.25653 6.07081 4.65575 6.87693 4.24586 7.76413C3.83597 8.65132 3.625 9.60221 3.625 10.5625C3.625 11.5228 3.83597 12.4737 4.24586 13.3609C4.65575 14.2481 5.25653 15.0542 6.01391 15.7332C6.77129 16.4122 7.67043 16.9509 8.65999 17.3184C9.64955 17.6859 10.7102 17.875 11.7812 17.875Z" fill="#F5F5F5"/>
</g>
<defs>
<clipPath id="clip0_266_392">
<rect width="29" height="26" fill="white"/>
</clipPath>
</defs>
</svg>
