<svg width="29" height="26" viewBox="0 0 29 26" fill="none" xmlns="http://www.w3.org/2000/svg">
<path d="M22.5996 19.5102C21.3479 17.5602 18.9973 16.25 16.3125 16.25H12.6875C10.0027 16.25 7.65215 17.5602 6.40039 19.5102C8.39414 21.5008 11.2828 22.75 14.5 22.75C17.7172 22.75 20.6059 21.4957 22.5996 19.5102ZM0 13C0 9.55219 1.52767 6.24558 4.24695 3.80761C6.96623 1.36964 10.6544 0 14.5 0C18.3456 0 22.0338 1.36964 24.753 3.80761C27.4723 6.24558 29 9.55219 29 13C29 16.4478 27.4723 19.7544 24.753 22.1924C22.0338 24.6304 18.3456 26 14.5 26C10.6544 26 6.96623 24.6304 4.24695 22.1924C1.52767 19.7544 0 16.4478 0 13ZM14.5 13.8125C15.5816 13.8125 16.6189 13.4273 17.3837 12.7416C18.1485 12.0559 18.5781 11.1259 18.5781 10.1562C18.5781 9.18655 18.1485 8.25657 17.3837 7.57089C16.6189 6.88521 15.5816 6.5 14.5 6.5C13.4184 6.5 12.3811 6.88521 11.6163 7.57089C10.8515 8.25657 10.4219 9.18655 10.4219 10.1562C10.4219 11.1259 10.8515 12.0559 11.6163 12.7416C12.3811 13.4273 13.4184 13.8125 14.5 13.8125Z" fill="#F5F5F5"/>
</svg>
